# xmcd
#
# Track frame offsets:
#	150
#	22775
#	34558
#	41213
#	50733
#	59218
#	72008
#	84673
#	96065
#	106245
#	116500
#	130283
#	139110
#	147075
#	158205
#	165758
#	174920
#	182713
#	190768
#	199693
#	214815
#	222593
#	231758
#	241365
#	261038
#	272525
#
# Disc length: 3774 seconds
#
# Revision: 1
# Processed by: cddbd v1.5.2PL0 Copyright (c) Steve Scherf et al.
# Submitted via: audiograbber 1.83.01
#
DISCID=710ebc1a
DTITLE=Draaiorgel Pacific - Draaiorgel Pacific
DYEAR=1900
DGENRE=Folklore
TTITLE0=Amsterdam Medley
TTITLE1=Beguin The Beguin
TTITLE2=Moody Blue
TTITLE3=Lullaby Of Birdland
TTITLE4=Indian Love Call
TTITLE5=Louis Davids Medley
TTITLE6=12The Street Rag
TTITLE7=Judas
TTITLE8=Kingston Town
TTITLE9=Kermiswals
TTITLE10=Grease Medley
TTITLE11=Estrelita
TTITLE12=Strangers In Paradise
TTITLE13=Jealousy Tango
TTITLE14=Perfidia
TTITLE15=Anemae
TTITLE16=Mexico
TTITLE17=In The Beginning To See
TTITLE18=Lissabon Antigua
TTITLE19=Toon Hermans Medley
TTITLE20=Choo-Coo Samba
TTITLE21=El Relicario
TTITLE22=Amore De Mis Amore
TTITLE23=My Fair Lady Medley
TTITLE24=Amapola
TTITLE25=Voetbalmars
EXTD=g en g music Heeswijk-Dinther NL R. G. 45.28
EXTT0=
EXTT1=
EXTT2=
EXTT3=
EXTT4=
EXTT5=
EXTT6=
EXTT7=
EXTT8=
EXTT9=
EXTT10=
EXTT11=
EXTT12=
EXTT13=
EXTT14=
EXTT15=
EXTT16=
EXTT17=
EXTT18=
EXTT19=
EXTT20=
EXTT21=
EXTT22=
EXTT23=
EXTT24=
EXTT25=
PLAYORDER=
